<?xml version="1.0" standalone="no"?>
<svg version="1.1" id="downloadSvg" xmlns="http://www.w3.org/2000/svg" xmlns:xlink="http://www.w3.org/1999/xlink" x="0px" y="0px" viewBox="0 0 1200 1200" enable-background="new 0 0 1200 1200" xml:space="preserve" height="512" width="512">
<g>
	<path fill="#1A1A3A" d="M1020.218,411.953H504.774l-2.682-20.036l-285.18-26.385l0.98-10.624l283.653,26.244l114.877-95.514&#10;&#9;&#9;c3.209-2.668,5.049-6.589,5.049-10.76v-155.22c0-3.952-2.887-7.313-6.795-7.912L286.36,61.481l-1.023,6.7l-0.185-7.102&#10;&#9;&#9;L82.169,145.542v0.004L67.039,151.9L50,158.124v881.751l46.612,20.127v-0.387l187.578,79.307l312.671-25.045v-4.608h423.356&#10;&#9;&#9;c71.562,0,129.782-55.249,129.782-123.16V535.113C1150,467.202,1091.78,411.953,1020.218,411.953z M335.557,991.774V715.958&#10;&#9;&#9;l287.618-5.085V972.25L335.557,991.774z M596.861,990.079l31.254-2.122c5.122-0.078,11.067-2.199,11.067-11.609V702.725&#10;&#9;&#9;c0-0.013-0.004-0.026-0.004-0.039c0-0.037-0.011-0.071-0.011-0.108c-0.013-0.726-0.144-1.417-0.339-2.084&#10;&#9;&#9;c-0.044-0.149-0.084-0.294-0.137-0.44c-0.245-0.688-0.561-1.337-0.975-1.924c-0.055-0.078-0.124-0.145-0.183-0.221&#10;&#9;&#9;c-0.423-0.558-0.916-1.052-1.469-1.482c-0.059-0.046-0.094-0.112-0.155-0.156l-103.212-75.69L508.41,439.116&#10;&#9;&#9;c0.474,0.176,0.96,0.317,1.429,0.506h510.379c55.755,0,101.113,42.838,101.113,95.491v450.995&#10;&#9;&#9;c0,52.653-45.359,95.491-101.113,95.491H596.861V990.079z M242.848,408.201c2.005-3.96,5.363-7.456,9.496-9.404&#10;&#9;&#9;c4.092-2.151,8.624-2.626,12.85-3.049c17.002-1.1,33.602,0.141,50.232,0.965c33.231,1.858,66.158,4.789,98.86,7.797&#10;&#9;&#9;c8.185,0.775,16.308,1.561,24.538,2.165l6.151,0.523c1.802,0.162,4.578,0.381,7.215,0.911c5.201,0.951,10.727,2.942,15.615,6.283&#10;&#9;&#9;c4.922,3.304,8.825,7.947,11.53,12.61c2.737,4.701,4.449,9.444,5.752,13.991c2.473,9.124,3.441,17.63,4.653,25.649&#10;&#9;&#9;c2.427,16.033,5.21,32.596,7.543,49.067c1.191,8.263,2.3,16.556,3.19,24.96c0.457,4.206,0.816,8.355,1.121,13.016&#10;&#9;&#9;c0.025,4.645-0.142,9.009-0.542,13.443c-0.386,4.454-1.007,9.059-2.475,13.894c-1.429,4.765-3.907,9.995-8.059,14.135&#10;&#9;&#9;c-4.162,4.122-9.27,6.549-13.926,8.002c-2.375,0.764-4.626,1.257-6.952,1.708c-2.374,0.379-4.74,0.72-6.918,0.842&#10;&#9;&#9;c-17.558,1.096-33.877,0.025-50.537-0.599c-6.271-0.3-12.521-0.621-18.783-0.933c-0.287-3.898-1.336-7.553-3.037-10.861&#10;&#9;&#9;c-4.739-9.22-14.242-15.608-25.302-15.608c-11.063,0-20.567,6.388-25.307,15.608c-1.304,2.537-2.269,5.252-2.763,8.156&#10;&#9;&#9;c-7.962-0.368-15.927-0.775-23.889-1.095l-12.326-0.574c-4.047-0.156-8.916-0.31-13.406-1.61&#10;&#9;&#9;c-9.238-2.281-17.273-9.215-21.439-17.18c-4.409-7.933-6.216-16.417-8.264-24.302c-1.592-8.822-2.319-16.655-3.387-24.996&#10;&#9;&#9;c-3.878-32.863-8.16-65.723-13.258-98.306C239.297,425.261,238.944,416.295,242.848,408.201z M365.061,629.474&#10;&#9;&#9;c-12.802,0-23.218-10.413-23.218-23.216c0-12.803,10.416-23.216,23.218-23.216c12.798,0,23.214,10.414,23.214,23.216&#10;&#9;&#9;C388.275,619.06,377.859,629.474,365.061,629.474z M368.453,634.467v36.427c0,0.987-0.802,1.79-1.787,1.79h-2.892&#10;&#9;&#9;c-0.99,0-1.793-0.802-1.793-1.79v-36.395c1.025,0.112,2.025,0.311,3.079,0.311C366.223,634.81,367.328,634.602,368.453,634.467z&#10;&#9;&#9; M605.464,126.528v147.401l-0.159,0.132c-0.008-0.003-0.017-0.006-0.025-0.009l0.101-0.85l-17.346-1.465l-298.396-38.234&#10;&#9;&#9;L285.58,77.557L605.464,126.528z M289.936,249.507c1.193-1.743,3.259-2.673,5.354-2.41l185.16,23.209l98.798,15.089&#10;&#9;&#9;c0.071,0.155,0.155,0.304,0.211,0.465l-223.03-17.887l212.443,31.762l-0.038,0.033l-224.202-16.989L553.15,313.26l-0.011,0.01&#10;&#9;&#9;l-220.3-15.686l204.387,29.176l-216.184-14.37l200.106,27.855l-211.901-13.049l195.817,26.539L297.45,342.003l192.482,25.357&#10;&#9;&#9;c-1.01,0.578-2.133,0.937-3.308,0.82l-250.702-24.968c-4.262-0.424-6.514-5.26-4.094-8.795L289.936,249.507z M262.797,1048.276&#10;&#9;&#9;c-59.724-19.549-119.57-38.409-179.629-56.842c59.997,25.699,119.825,51.796,179.431,78.388&#10;&#9;&#9;c-58.861-19.065-117.55-38.659-176.106-58.643c59.127,25.722,117.553,52.291,175.8,80.138&#10;&#9;&#9;c-60.388-21.866-120.919-43.052-181.681-63.811l-0.001,0.732l-8.725-3.746c-1.477-0.503-2.945-1.025-4.422-1.527&#10;&#9;&#9;c-0.003-0.133-0.006-0.245-0.009-0.375l-0.415-0.178v-10.331v-6.683c-0.021-0.866-0.043-1.768-0.066-2.735&#10;&#9;&#9;c0.022,0.01,0.044,0.02,0.066,0.029v-33.098c-0.028-1.045-0.056-2.134-0.087-3.328c0.029,0.011,0.058,0.023,0.087,0.035v-33.089&#10;&#9;&#9;c-0.028-1.047-0.056-2.138-0.088-3.335c0.03,0.01,0.058,0.022,0.088,0.032v-32.51c-0.035-1.22-0.072-2.492-0.113-3.918&#10;&#9;&#9;c0.038,0.012,0.075,0.025,0.113,0.037v-32.512c-0.035-1.219-0.072-2.489-0.113-3.914c0.038,0.011,0.075,0.022,0.113,0.034V315.089&#10;&#9;&#9;c-0.035-1.191-0.071-2.434-0.111-3.826c0.037-0.009,0.074-0.017,0.111-0.026v-32.535c-0.035-1.192-0.071-2.434-0.111-3.827&#10;&#9;&#9;c0.037-0.01,0.074-0.019,0.111-0.029v-33.124c-0.027-1.019-0.055-2.081-0.086-3.245c0.029-0.009,0.058-0.017,0.086-0.026v-33.134&#10;&#9;&#9;c-0.027-1.014-0.055-2.072-0.086-3.23c0.028-0.01,0.057-0.019,0.086-0.029v-33.73c-0.021-0.837-0.041-1.707-0.064-2.641&#10;&#9;&#9;c68.223-25.659,136.422-49.854,205.636-72.705c-63.583,27.659-126.74,56.286-189.648,85.446&#10;&#9;&#9;c61.439-21.069,123.027-41.704,184.795-61.785c-60.12,26.735-120.462,52.968-180.967,78.819&#10;&#9;&#9;c58.396-19.56,116.8-38.004,176.006-55.288c-60.189,24.536-120.043,49.666-179.787,75.23&#10;&#9;&#9;c58.106-17.734,116.338-35.054,174.725-51.838c-57.096,23.542-114.391,46.595-171.833,69.28&#10;&#9;&#9;c55.908-16.67,111.766-32.234,168.408-46.608c-57.548,21.532-114.755,43.695-171.872,66.3&#10;&#9;&#9;c56.019-15.025,112.147-29.644,168.408-43.736c-55.032,20.874-110.244,41.266-165.589,61.295&#10;&#9;&#9;c53.844-14.092,107.59-27.058,162.09-38.841c-55.391,18.875-110.452,38.38-165.431,58.367v0.023&#10;&#9;&#9;c53.911-12.303,107.849-24.34,161.899-36.05c-52.335,17.956-104.742,35.597-157.247,53.023&#10;&#9;&#9;c50.773-12.051,102.26-22.553,153.685-30.799c-53.038,16.299-105.75,33.257-158.402,50.699v0.141&#10;&#9;&#9;c46.962-8.88,94.018-17.386,141.134-25.383c-46.91,15.022-93.993,29.579-141.166,43.77v0.193&#10;&#9;&#9;c43.317-6.911,69.437-10.812,116.926-17.524c-47.501,14.895-73.621,22.876-116.958,35.677l-0.001,0.538&#10;&#9;&#9;c34.488-4.346,56.023-6.839,94.512-11.001c-38.5,12.005-60.037,18.555-94.543,28.696l-0.002,0.785&#10;&#9;&#9;c33.794-3.614,54.957-5.66,92.729-9.024c-37.783,11.179-58.948,17.279-92.76,26.678l-0.001,0.761&#10;&#9;&#9;c35.122-3.243,56.975-5.036,96.099-7.947c-39.135,10.784-60.989,16.637-96.13,25.689l-0.001,0.619&#10;&#9;&#9;c38.484-3.134,62.078-4.814,104.623-7.51c-42.556,10.706-66.152,16.456-104.654,25.446l0,0.468&#10;&#9;&#9;c40.538-2.737,65.186-4.15,109.813-6.353c-44.638,10.293-69.289,15.779-109.846,24.395l0,0.43&#10;&#9;&#9;c39.835-1.944,64.111-2.88,108.015-4.227c-43.916,9.411-68.193,14.42-108.047,22.238l-0.001,0.442&#10;&#9;&#9;c39.854-1.248,64.132-1.759,108.048-2.338c-43.928,8.644-68.207,13.229-108.08,20.353l-0.001,0.423&#10;&#9;&#9;c40.459-0.599,65.041-0.712,109.564-0.564c-44.535,7.941-69.118,12.128-109.596,18.611l-0.001,0.369&#10;&#9;&#9;c41.931,0.013,67.261,0.279,113.272,1.13c-46.022,7.293-71.353,11.104-113.304,16.989l-0.001,0.33&#10;&#9;&#9;c41.95,0.747,67.282,1.456,113.304,3.112c-46.034,6.49-71.367,9.858-113.336,15.011l-0.001,0.309&#10;&#9;&#9;c42.695,1.459,68.399,2.599,115.168,5.048c-46.781,5.725-72.487,8.663-115.2,13.111l-0.001,0.288&#10;&#9;&#9;c42.714,2.206,68.42,3.796,115.201,7.065c-46.793,4.907-72.499,7.395-115.233,11.098l0,0.24&#10;&#9;&#9;c44.776,2.96,71.529,5.002,120.392,9.125c-48.875,4.125-75.629,6.165-120.424,9.127l-0.001,0.235&#10;&#9;&#9;c42.753,3.704,68.461,6.194,115.266,11.102c-46.817,3.272-72.526,4.86-115.298,7.069l-0.001,0.216&#10;&#9;&#9;c45.541,4.558,72.663,7.549,122.284,13.423c-49.633,2.403-76.757,3.494-122.317,4.865v0.117&#10;&#9;&#9;c47.606,5.468,75.768,8.99,127.477,15.875c-51.721,1.46-79.883,2.023-127.508,2.492v0.074&#10;&#9;&#9;c47.625,6.303,75.788,10.317,127.508,18.109c-51.733,0.556-79.896,0.625-127.541,0.261v0.057&#10;&#9;&#9;c48.369,7.203,76.899,11.743,129.362,20.518c-52.475-0.402-81.006-0.857-129.395-2.118v0.058&#10;&#9;&#9;c44.915,7.366,89.791,15.101,134.555,23.309c-54.558-1.506-84.128-2.568-134.587-4.891v0.02&#10;&#9;&#9;c44.932,8.155,89.82,16.677,134.587,25.669c-54.498-2.458-84.064-4.036-134.421-7.235c47.213,9.248,94.371,18.884,141.397,29.01&#10;&#9;&#9;c-47.109-3.044-94.212-6.609-141.259-10.563c48.895,10.33,97.728,21.061,146.417,32.296c-48.693-4.1-97.369-8.737-145.979-13.774&#10;&#9;&#9;c50.478,11.449,100.885,23.31,151.138,35.687c-50.374-5.221-100.721-10.996-150.992-17.184&#10;&#9;&#9;c49.829,12.209,99.583,24.82,149.176,37.935c-49.836-6.003-99.633-12.553-149.351-19.51&#10;&#9;&#9;c51.071,13.52,102.049,27.273,152.978,41.341c-50.91-7.091-101.773-14.739-152.544-22.799&#10;&#9;&#9;c53.254,14.902,106.409,30.045,159.508,45.515c-53.157-8.695-106.219-17.72-159.268-27.007&#10;&#9;&#9;c54.377,16.107,108.648,32.458,162.858,49.14c-53.583-9.768-107.065-19.868-160.529-30.221&#10;&#9;&#9;c56.261,16.695,111.854,34.346,167.473,53.361c-56.515-12.453-113.069-24.176-169.816-35.423&#10;&#9;&#9;c57.935,18.839,115.737,38.09,173.363,57.855c-56.762-12.322-113.405-25.185-169.955-38.444&#10;&#9;&#9;c57.703,19.082,114.724,39.099,171.718,60.469c-58.134-14.909-116.338-29.098-174.741-42.827&#10;&#9;&#9;c59.577,21.371,119.006,43.157,178.24,65.46c-58.417-14.81-116.694-30.167-174.862-45.925&#10;&#9;&#9;c58.207,21.275,115.732,43.441,173.167,66.954c-58.671-17.125-117.443-33.525-176.418-49.498&#10;&#9;&#9;c60.125,23.644,120.088,47.697,179.844,72.261c-58.933-17.03-117.709-34.603-176.362-52.572&#10;&#9;&#9;C145.797,997.811,204.363,1022.387,262.797,1048.276z M210.521,346.652l-1.482,2.164l-0.132-0.013L210.521,346.652z&#10;&#9;&#9; M237.398,633.254c-1.372-1.102-2.087-2.579-2.507-4.223l-0.274-0.025l-1.279-14.429l-4.346-43.49l1.31,9.251l-17.894-201.842&#10;&#9;&#9;l37.581,250.205l98.194,0.463c2.534,1.873,5.388,3.278,8.464,4.235v34.041c-7.047,0.572-14.726,2.483-15.7,8.066&#10;&#9;&#9;c-1.845,10.586,45.174,10.265,48.135,1.277c1.477-4.485-8.81-7.212-15.292-8.468v-35.015c2.875-0.932,5.559-2.239,7.955-3.979&#10;&#9;&#9;l137.227,0.647c0.442,0.556,0.929,1.078,1.513,1.505l86.819,63.669l-282.282,4.988L237.398,633.254z M493.393,1107.237&#10;&#9;&#9;l-207.865,17.354l3.467-113.668c0.079,0.002,0.152,0.022,0.232,0.022c0.182,0,0.37-0.005,0.552-0.018l146.727-9.961l-49.708,6.169&#10;&#9;&#9;l177.841-7.933l-176.638,21.987l176.971-7.89l-175.767,21.944l176.104-7.848l-174.9,21.902l175.237-7.805l-174.034,21.859&#10;&#9;&#9;l174.37-7.762l-173.166,21.816l173.5-7.719l-172.297,21.773l172.633-7.677l-171.429,21.731l171.763-7.634L493.393,1107.237z&#10;&#9;&#9; M1138.678,986.108c0,61.667-53.142,111.838-118.461,111.838H596.861v-7.855h423.356c60.437,0,109.605-46.647,109.605-103.982&#10;&#9;&#9;V535.113c0-57.336-49.168-103.982-109.605-103.982H507.341l-1.051-7.856h513.928c65.318,0,118.461,50.171,118.461,111.838V986.108z&#10;&#9;&#9;" style="fill: rgb(92, 225, 230);"/>
	<polygon fill="#1A1A3A" points="761.896,637.495 761.38,637.495 761.38,635.942 760.86,635.942 760.86,634.905 760.343,634.905 &#10;&#9;&#9;760.343,633.87 759.826,633.87 759.826,633.352 759.306,633.352 759.306,632.833 758.79,632.833 758.79,632.316 758.273,632.316 &#10;&#9;&#9;758.273,631.798 757.236,631.798 757.236,631.28 755.683,631.28 755.683,630.763 753.61,630.763 753.61,630.245 693.538,630.245 &#10;&#9;&#9;693.538,630.763 691.467,630.763 691.467,631.28 689.914,631.28 689.914,631.798 688.877,631.798 688.877,632.316 688.358,632.316 &#10;&#9;&#9;688.358,632.833 687.841,632.833 687.841,633.352 687.324,633.352 687.324,633.87 686.804,633.87 686.804,634.905 686.287,634.905 &#10;&#9;&#9;686.287,635.942 685.771,635.942 685.771,637.495 685.251,637.495 685.251,641.12 684.734,641.12 684.734,800.107 685.251,800.107 &#10;&#9;&#9;685.251,803.213 685.771,803.213 685.771,804.767 686.287,804.767 686.287,805.803 686.804,805.803 686.804,806.839 &#10;&#9;&#9;687.324,806.839 687.324,807.357 687.841,807.357 687.841,807.875 688.358,807.875 688.358,808.392 688.877,808.392 &#10;&#9;&#9;688.877,808.91 689.914,808.91 689.914,809.428 690.948,809.428 690.948,809.947 692.501,809.947 692.501,810.464 696.128,810.464 &#10;&#9;&#9;696.128,810.982 751.539,810.982 751.539,810.464 754.646,810.464 754.646,809.947 756.2,809.947 756.2,809.428 757.236,809.428 &#10;&#9;&#9;757.236,808.91 758.273,808.91 758.273,808.392 758.79,808.392 758.79,807.875 759.306,807.875 759.306,807.357 759.826,807.357 &#10;&#9;&#9;759.826,806.839 760.343,806.839 760.343,805.803 760.86,805.803 760.86,804.767 761.38,804.767 761.38,803.213 761.896,803.213 &#10;&#9;&#9;761.896,800.107 762.416,800.107 762.416,707.407 723.575,707.407 723.575,733.301 736.522,733.301 736.522,785.088 &#10;&#9;&#9;710.628,785.088 710.628,655.62 736.522,655.62 736.522,681.515 762.416,681.515 762.416,640.602 761.896,640.602 &#9;" style="fill: rgb(92, 225, 230);"/>
	<path fill="#1A1A3A" d="M852.523,636.977h-0.517v-1.553h-0.52v-1.035h-0.517v-1.036h-0.517v-0.518h-0.52v-0.517h-1.034v-0.518&#10;&#9;&#9;h-0.52v-0.518h-1.553v-0.517h-1.553v-0.518h-3.107v-0.518h-55.931v0.518h-3.107v0.518h-1.553v0.517h-1.034v0.518h-1.037v0.518&#10;&#9;&#9;h-0.52v0.517h-0.517v0.518h-0.517v0.518h-0.52v1.035h-0.517v1.037h-0.517v1.553h-0.52v3.107h-0.517v170.38h25.894v-77.681h25.894&#10;&#9;&#9;v77.681h25.894v-0.518h-0.52v-0.517h0.52v-1.555h-0.52v-0.517h0.52v-1.553h-0.52v-0.518h0.52v-1.553h-0.52v-0.518h0.52v-1.553&#10;&#9;&#9;h-0.52v-0.518h0.52v-1.553h-0.52v-0.518h0.52v-1.553h-0.52v-0.518h0.52v-1.553h-0.52v-0.517h0.52v-1.555h-0.52v-0.517h0.52v-1.553&#10;&#9;&#9;h-0.52v-0.518h0.52v-1.553h-0.52v-0.518h0.52v-1.553h-0.52v-0.518h0.52v-1.553h-0.52v-0.518h0.52v-1.553h-0.52v-0.518h0.52v-1.553&#10;&#9;&#9;h-0.52v-0.517h0.52v-1.555h-0.52v-0.517h0.52v-1.553h-0.52v-0.518h0.52v-1.553h-0.52v-0.518h0.52v-1.553h-0.52v-0.518h0.52v-1.553&#10;&#9;&#9;h-0.52v-0.518h0.52v-1.553h-0.52v-0.518h0.52v-1.553h-0.52v-0.517h0.52v-1.555h-0.52v-0.517h0.52v-1.553h-0.52v-0.518h0.52v-1.553&#10;&#9;&#9;h-0.52v-0.518h0.52v-1.553h-0.52v-0.518h0.52v-1.553h-0.52v-0.518h0.52v-1.553h-0.52v-0.518h0.52v-1.553h-0.52v-0.517h0.52v-1.555&#10;&#9;&#9;h-0.52v-0.517h0.52v-1.553h-0.52v-0.518h0.52v-1.553h-0.52v-0.518h0.52v-1.553h-0.52v-0.518h0.52v-1.553h-0.52v-0.518h0.52v-1.553&#10;&#9;&#9;h-0.52v-0.518h0.52v-1.553h-0.52v-0.517h0.52v-1.555h-0.52v-0.517h0.52v-1.553h-0.52v-0.518h0.52v-1.553h-0.52v-0.518h0.52v-1.553&#10;&#9;&#9;h-0.52v-0.518h0.52v-1.553h-0.52v-0.518h0.52v-1.553h-0.52v-0.517h0.52v-1.555h-0.52v-0.517h0.52v-1.555h-0.52v-0.517h0.52v-1.553&#10;&#9;&#9;h-0.52v-0.518h0.52v-1.553h-0.52v-0.518h0.52v-1.553h-0.52v-0.518h0.52v-1.553h-0.52v-0.518h0.52v-1.553h-0.52v-0.517h0.52v-1.555&#10;&#9;&#9;h-0.52v-0.517h0.52v-1.553h-0.52v-0.518h0.52v-1.553h-0.52V704.3h0.52v-1.553h-0.52v-0.518h0.52v-1.553h-0.52v-0.518h0.52v-1.553&#10;&#9;&#9;h-0.52v-0.518h0.52v-1.553h-0.52v-0.517h0.52v-1.555h-0.52v-0.517h0.52v-1.553h-0.52v-0.518h0.52v-1.553h-0.52V689.8h0.52v-1.553&#10;&#9;&#9;h-0.52v-0.518h0.52v-1.553h-0.52v-0.518h0.52v-1.553h-0.52v-0.518h0.52v-1.553h-0.52v-0.517h0.52v-1.555h-0.52v-0.517h0.52v-1.553&#10;&#9;&#9;h-0.52v-0.518h0.52v-1.553h-0.52v-0.518h0.52v-1.553h-0.52v-0.518h0.52v-1.553h-0.52v-0.518h0.52v-1.553h-0.52v-0.518h0.52v-1.553&#10;&#9;&#9;h-0.52v-0.517h0.52v-1.555h-0.52v-0.517h0.52v-1.553h-0.52v-0.518h0.52v-1.553h-0.52v-0.518h0.52v-1.553h-0.52v-0.518h0.52v-1.553&#10;&#9;&#9;h-0.52v-0.518h0.52v-1.553h-0.52v-0.518h0.52v-1.553h-0.52v-0.517h0.52v-1.555h-0.52v-0.517h0.52v-1.553h-0.52v-0.518h0.52v-1.553&#10;&#9;&#9;h-0.52v-0.518h0.52v-1.553h-0.52v-0.518h0.52v-1.553h-0.52v-0.518h0.52v-3.107h-0.52V636.977z M827.148,707.407h-25.894v-26.929&#10;&#9;&#9;h0.517v-7.768h-0.517v-9.32h0.517v-4.143h0.52v-1.553h0.517v-0.518h0.517v-0.518h1.036v-0.517h3.624v-0.518h12.43v0.518h3.626&#10;&#9;&#9;v0.517h1.034v0.518h0.52v0.518h0.517v1.035h0.517v2.59h0.52V707.407z" style="fill: rgb(92, 225, 230);"/>
	<polygon fill="#1A1A3A" points="969.56,810.982 969.56,765.927 970.08,765.927 970.08,629.726 943.149,629.726 943.149,631.28 &#10;&#9;&#9;942.632,631.28 942.632,632.316 942.113,632.316 942.113,633.352 941.596,633.352 941.596,634.388 941.079,634.388 &#10;&#9;&#9;941.079,635.423 940.559,635.423 940.559,636.458 940.042,636.458 940.042,637.495 939.525,637.495 939.525,638.53 939.006,638.53 &#10;&#9;&#9;939.006,639.567 938.489,639.567 938.489,640.602 937.972,640.602 937.972,641.638 937.452,641.638 937.452,642.673 &#10;&#9;&#9;936.935,642.673 936.935,643.709 936.419,643.709 936.419,644.745 935.899,644.745 935.899,645.78 935.382,645.78 935.382,646.817 &#10;&#9;&#9;934.862,646.817 934.862,647.852 934.345,647.852 934.345,649.405 933.829,649.405 933.829,650.442 933.309,650.442 &#10;&#9;&#9;933.309,651.477 932.792,651.477 932.792,652.514 932.275,652.514 932.275,653.549 931.755,653.549 931.755,654.584 &#10;&#9;&#9;931.239,654.584 931.239,655.62 930.722,655.62 930.722,656.656 930.202,656.656 930.202,657.692 929.685,657.692 929.685,658.727 &#10;&#9;&#9;929.168,658.727 929.168,659.764 928.649,659.764 928.649,660.799 928.132,660.799 928.132,661.834 927.612,661.834 &#10;&#9;&#9;927.612,662.871 927.095,662.871 927.095,663.906 926.578,663.906 926.578,664.942 926.059,664.942 926.059,666.496 &#10;&#9;&#9;925.542,666.496 925.542,667.531 925.025,667.531 925.025,668.568 924.505,668.568 924.505,669.603 923.988,669.603 &#10;&#9;&#9;923.988,670.639 923.471,670.639 923.471,671.674 922.952,671.674 922.952,672.709 922.435,672.709 922.435,673.746 &#10;&#9;&#9;921.918,673.746 921.918,674.781 921.398,674.781 921.398,675.818 920.882,675.818 920.882,676.853 920.362,676.853 &#10;&#9;&#9;920.362,677.889 919.845,677.889 919.845,678.925 919.328,678.925 919.328,679.96 918.808,679.96 918.808,680.996 918.292,680.996 &#10;&#9;&#9;918.292,682.031 917.255,682.031 917.255,680.996 916.738,680.996 916.738,679.96 916.221,679.96 916.221,678.925 915.702,678.925 &#10;&#9;&#9;915.702,677.889 915.185,677.889 915.185,676.853 914.668,676.853 914.668,675.818 914.148,675.818 914.148,674.781 &#10;&#9;&#9;913.631,674.781 913.631,673.746 913.112,673.746 913.112,672.709 912.595,672.709 912.595,671.674 912.078,671.674 &#10;&#9;&#9;912.078,670.639 911.558,670.639 911.558,669.603 911.041,669.603 911.041,668.568 910.524,668.568 910.524,667.531 &#10;&#9;&#9;910.005,667.531 910.005,666.496 909.488,666.496 909.488,664.942 908.971,664.942 908.971,663.906 908.451,663.906 &#10;&#9;&#9;908.451,662.871 907.935,662.871 907.935,661.834 907.418,661.834 907.418,660.799 906.898,660.799 906.898,659.764 &#10;&#9;&#9;906.381,659.764 906.381,658.727 905.861,658.727 905.861,657.692 905.345,657.692 905.345,656.656 904.828,656.656 &#10;&#9;&#9;904.828,655.62 904.308,655.62 904.308,654.584 903.791,654.584 903.791,653.549 903.274,653.549 903.274,652.514 902.755,652.514 &#10;&#9;&#9;902.755,651.477 902.238,651.477 902.238,650.442 901.721,650.442 901.721,649.405 901.201,649.405 901.201,647.852 &#10;&#9;&#9;900.684,647.852 900.684,646.817 900.167,646.817 900.167,645.78 899.648,645.78 899.648,644.745 899.131,644.745 899.131,643.709 &#10;&#9;&#9;898.611,643.709 898.611,642.673 898.094,642.673 898.094,641.638 897.577,641.638 897.577,640.602 897.058,640.602 &#10;&#9;&#9;897.058,639.567 896.541,639.567 896.541,638.53 896.024,638.53 896.024,637.495 895.504,637.495 895.504,636.458 894.987,636.458 &#10;&#9;&#9;894.987,635.423 894.471,635.423 894.471,634.388 893.951,634.388 893.951,633.352 893.434,633.352 893.434,632.316 &#10;&#9;&#9;892.917,632.316 892.917,631.28 892.398,631.28 892.398,629.726 865.987,629.726 865.987,810.982 891.881,810.982 891.881,695.497 &#10;&#9;&#9;892.398,695.497 892.398,696.532 892.917,696.532 892.917,697.568 893.434,697.568 893.434,698.604 893.951,698.604 &#10;&#9;&#9;893.951,699.64 894.471,699.64 894.471,700.675 894.987,700.675 894.987,701.71 895.504,701.71 895.504,702.747 896.024,702.747 &#10;&#9;&#9;896.024,703.782 896.541,703.782 896.541,704.819 897.058,704.819 897.058,705.854 897.577,705.854 897.577,706.89 898.094,706.89 &#10;&#9;&#9;898.094,707.925 898.611,707.925 898.611,708.961 899.131,708.961 899.131,709.997 899.648,709.997 899.648,711.032 &#10;&#9;&#9;900.167,711.032 900.167,712.069 900.684,712.069 900.684,713.104 901.201,713.104 901.201,714.141 901.721,714.141 &#10;&#9;&#9;901.721,715.176 902.238,715.176 902.238,716.211 902.755,716.211 902.755,717.247 903.274,717.247 903.274,718.282 &#10;&#9;&#9;903.791,718.282 903.791,719.319 904.308,719.319 904.308,720.354 904.828,720.354 904.828,721.389 905.345,721.389 &#10;&#9;&#9;905.345,722.426 905.861,722.426 905.861,723.461 906.381,723.461 906.381,724.498 906.898,724.498 906.898,725.533 &#10;&#9;&#9;907.418,725.533 907.418,726.569 907.935,726.569 907.935,727.604 908.451,727.604 908.451,728.64 908.971,728.64 908.971,729.676 &#10;&#9;&#9;909.488,729.676 909.488,730.711 910.005,730.711 910.005,731.748 910.524,731.748 910.524,732.783 911.041,732.783 &#10;&#9;&#9;911.041,733.819 911.558,733.819 911.558,734.855 912.078,734.855 912.078,735.89 912.595,735.89 912.595,736.926 913.112,736.926 &#10;&#9;&#9;913.112,737.961 913.631,737.961 913.631,738.998 914.148,738.998 914.148,740.033 914.668,740.033 914.668,741.07 915.185,741.07 &#10;&#9;&#9;915.185,742.105 915.702,742.105 915.702,743.14 916.221,743.14 916.221,744.177 916.738,744.177 916.738,745.212 917.255,745.212 &#10;&#9;&#9;917.255,746.248 918.292,746.248 918.292,745.212 918.808,745.212 918.808,744.177 919.328,744.177 919.328,743.14 919.845,743.14 &#10;&#9;&#9;919.845,742.105 920.362,742.105 920.362,741.07 920.882,741.07 920.882,740.033 921.398,740.033 921.398,738.998 921.918,738.998 &#10;&#9;&#9;921.918,737.961 922.435,737.961 922.435,736.926 922.952,736.926 922.952,735.89 923.471,735.89 923.471,734.855 923.988,734.855 &#10;&#9;&#9;923.988,733.819 924.505,733.819 924.505,732.783 925.025,732.783 925.025,731.748 925.542,731.748 925.542,730.711 &#10;&#9;&#9;926.059,730.711 926.059,729.676 926.578,729.676 926.578,728.64 927.095,728.64 927.095,727.604 927.612,727.604 927.612,726.569 &#10;&#9;&#9;928.132,726.569 928.132,725.533 928.649,725.533 928.649,724.498 929.168,724.498 929.168,723.461 929.685,723.461 &#10;&#9;&#9;929.685,722.426 930.202,722.426 930.202,721.389 930.722,721.389 930.722,720.354 931.239,720.354 931.239,719.319 &#10;&#9;&#9;931.755,719.319 931.755,718.282 932.275,718.282 932.275,717.247 932.792,717.247 932.792,716.211 933.309,716.211 &#10;&#9;&#9;933.309,715.176 933.829,715.176 933.829,714.141 934.345,714.141 934.345,713.104 934.862,713.104 934.862,712.069 &#10;&#9;&#9;935.382,712.069 935.382,711.032 935.899,711.032 935.899,709.997 936.419,709.997 936.419,708.961 936.935,708.961 &#10;&#9;&#9;936.935,707.925 937.452,707.925 937.452,706.89 937.972,706.89 937.972,705.854 938.489,705.854 938.489,704.819 939.006,704.819 &#10;&#9;&#9;939.006,703.782 939.525,703.782 939.525,702.747 940.042,702.747 940.042,701.71 940.559,701.71 940.559,700.675 941.079,700.675 &#10;&#9;&#9;941.079,699.64 941.596,699.64 941.596,698.604 942.113,698.604 942.113,697.568 942.632,697.568 942.632,696.532 943.149,696.532 &#10;&#9;&#9;943.149,695.497 943.669,695.497 943.669,810.982 &#9;" style="fill: rgb(92, 225, 230);"/>
	<polygon fill="#1A1A3A" points="1057.469,633.87 1057.469,633.352 1056.95,633.352 1056.95,632.833 1056.433,632.833 &#10;&#9;&#9;1056.433,632.316 1055.916,632.316 1055.916,631.798 1054.879,631.798 1054.879,631.28 1053.326,631.28 1053.326,630.763 &#10;&#9;&#9;1051.253,630.763 1051.253,630.245 1019.665,630.245 1019.665,629.726 982.377,629.726 982.377,810.982 1049.182,810.982 &#10;&#9;&#9;1049.182,810.464 1052.289,810.464 1052.289,809.947 1053.843,809.947 1053.843,809.428 1054.879,809.428 1054.879,808.91 &#10;&#9;&#9;1055.916,808.91 1055.916,808.392 1056.433,808.392 1056.433,807.875 1056.95,807.875 1056.95,807.357 1057.469,807.357 &#10;&#9;&#9;1057.469,806.839 1057.986,806.839 1057.986,805.803 1058.503,805.803 1058.503,804.767 1059.023,804.767 1059.023,803.213 &#10;&#9;&#9;1059.54,803.213 1059.54,800.107 1060.059,800.107 1060.059,785.088 1008.271,785.088 1008.271,733.301 1034.165,733.301 &#10;&#9;&#9;1034.165,707.407 1008.271,707.407 1008.271,655.62 1060.059,655.62 1060.059,640.602 1059.54,640.602 1059.54,637.495 &#10;&#9;&#9;1059.023,637.495 1059.023,635.942 1058.503,635.942 1058.503,634.905 1057.986,634.905 1057.986,633.87 &#9;" style="fill: rgb(92, 225, 230);"/>
	<polygon fill="#1A1A3A" points="684.734,889.576 736.522,889.576 736.522,890.094 736.002,890.094 736.002,891.13 735.485,891.13 &#10;&#9;&#9;735.485,892.683 734.969,892.683 734.969,893.719 734.449,893.719 734.449,895.273 733.932,895.273 733.932,896.308 &#10;&#9;&#9;733.415,896.308 733.415,897.861 732.896,897.861 732.896,898.898 732.379,898.898 732.379,900.451 731.859,900.451 &#10;&#9;&#9;731.859,901.487 731.342,901.487 731.342,903.04 730.825,903.04 730.825,904.077 730.306,904.077 730.306,905.63 729.789,905.63 &#10;&#9;&#9;729.789,906.665 729.272,906.665 729.272,908.22 728.752,908.22 728.752,909.255 728.235,909.255 728.235,910.808 727.718,910.808 &#10;&#9;&#9;727.718,911.845 727.199,911.845 727.199,913.398 726.682,913.398 726.682,914.434 726.165,914.434 726.165,915.987 &#10;&#9;&#9;725.645,915.987 725.645,917.024 725.128,917.024 725.128,918.577 724.609,918.577 724.609,919.612 724.092,919.612 &#10;&#9;&#9;724.092,921.166 723.575,921.166 723.575,922.202 723.055,922.202 723.055,923.755 722.538,923.755 722.538,924.791 &#10;&#9;&#9;722.022,924.791 722.022,926.345 721.502,926.345 721.502,927.381 720.985,927.381 720.985,928.934 720.468,928.934 &#10;&#9;&#9;720.468,929.971 719.949,929.971 719.949,931.524 719.432,931.524 719.432,932.559 718.915,932.559 718.915,934.113 &#10;&#9;&#9;718.395,934.113 718.395,935.149 717.878,935.149 717.878,936.703 717.359,936.703 717.359,937.738 716.842,937.738 &#10;&#9;&#9;716.842,939.291 716.325,939.291 716.325,940.328 715.805,940.328 715.805,941.881 715.288,941.881 715.288,942.916 &#10;&#9;&#9;714.771,942.916 714.771,944.471 714.252,944.471 714.252,945.506 713.735,945.506 713.735,947.06 713.218,947.06 713.218,948.096 &#10;&#9;&#9;712.698,948.096 712.698,949.65 712.181,949.65 712.181,950.685 711.665,950.685 711.665,952.238 711.145,952.238 711.145,953.275 &#10;&#9;&#9;710.628,953.275 710.628,954.828 710.108,954.828 710.108,955.863 709.591,955.863 709.591,957.417 709.075,957.417 &#10;&#9;&#9;709.075,958.453 708.555,958.453 708.555,960.007 708.038,960.007 708.038,961.042 707.521,961.042 707.521,962.595 &#10;&#9;&#9;707.002,962.595 707.002,963.632 706.485,963.632 706.485,965.185 705.968,965.185 705.968,966.22 705.448,966.22 705.448,967.775 &#10;&#9;&#9;704.931,967.775 704.931,968.81 704.414,968.81 704.414,970.364 703.895,970.364 703.895,971.4 703.378,971.4 703.378,972.954 &#10;&#9;&#9;702.858,972.954 702.858,973.989 702.341,973.989 702.341,975.542 701.824,975.542 701.824,976.579 701.305,976.579 &#10;&#9;&#9;701.305,978.132 700.788,978.132 700.788,979.167 700.271,979.167 700.271,980.721 699.751,980.721 699.751,981.757 &#10;&#9;&#9;699.234,981.757 699.234,983.311 698.718,983.311 698.718,984.346 698.198,984.346 698.198,985.901 697.681,985.901 &#10;&#9;&#9;697.681,986.936 697.164,986.936 697.164,988.489 696.644,988.489 696.644,989.526 696.128,989.526 696.128,991.079 &#10;&#9;&#9;695.608,991.079 695.608,992.114 695.091,992.114 695.091,993.668 694.574,993.668 694.574,994.704 694.055,994.704 &#10;&#9;&#9;694.055,996.258 693.538,996.258 693.538,997.293 693.021,997.293 693.021,998.846 692.501,998.846 692.501,999.883 &#10;&#9;&#9;691.984,999.883 691.984,1001.436 691.467,1001.436 691.467,1002.471 690.948,1002.471 690.948,1004.026 690.431,1004.026 &#10;&#9;&#9;690.431,1005.061 689.914,1005.061 689.914,1006.615 689.394,1006.615 689.394,1007.651 688.877,1007.651 688.877,1009.205 &#10;&#9;&#9;688.358,1009.205 688.358,1010.24 687.841,1010.24 687.841,1011.793 687.324,1011.793 687.324,1012.83 686.804,1012.83 &#10;&#9;&#9;686.804,1014.383 686.287,1014.383 686.287,1015.418 685.771,1015.418 685.771,1016.972 685.251,1016.972 685.251,1018.008 &#10;&#9;&#9;684.734,1018.008 684.734,1044.938 762.416,1044.938 762.416,1019.043 710.628,1019.043 710.628,1018.527 711.145,1018.527 &#10;&#9;&#9;711.145,1017.49 711.665,1017.49 711.665,1015.937 712.181,1015.937 712.181,1014.901 712.698,1014.901 712.698,1013.347 &#10;&#9;&#9;713.218,1013.347 713.218,1012.312 713.735,1012.312 713.735,1010.758 714.252,1010.758 714.252,1009.722 714.771,1009.722 &#10;&#9;&#9;714.771,1008.168 715.288,1008.168 715.288,1007.133 715.805,1007.133 715.805,1005.58 716.325,1005.58 716.325,1004.543 &#10;&#9;&#9;716.842,1004.543 716.842,1002.99 717.359,1002.99 717.359,1001.954 717.878,1001.954 717.878,1000.401 718.395,1000.401 &#10;&#9;&#9;718.395,999.365 718.915,999.365 718.915,997.811 719.432,997.811 719.432,996.776 719.949,996.776 719.949,995.221 &#10;&#9;&#9;720.468,995.221 720.468,994.186 720.985,994.186 720.985,992.633 721.502,992.633 721.502,991.596 722.022,991.596 &#10;&#9;&#9;722.022,990.043 722.538,990.043 722.538,989.007 723.055,989.007 723.055,987.454 723.575,987.454 723.575,986.417 &#10;&#9;&#9;724.092,986.417 724.092,984.864 724.609,984.864 724.609,983.829 725.128,983.829 725.128,982.276 725.645,982.276 &#10;&#9;&#9;725.645,981.239 726.165,981.239 726.165,979.686 726.682,979.686 726.682,978.65 727.199,978.65 727.199,977.096 727.718,977.096 &#10;&#9;&#9;727.718,976.06 728.235,976.06 728.235,974.507 728.752,974.507 728.752,973.47 729.272,973.47 729.272,971.917 729.789,971.917 &#10;&#9;&#9;729.789,970.882 730.306,970.882 730.306,969.328 730.825,969.328 730.825,968.292 731.342,968.292 731.342,966.739 &#10;&#9;&#9;731.859,966.739 731.859,965.703 732.379,965.703 732.379,964.15 732.896,964.15 732.896,963.113 733.415,963.113 733.415,961.56 &#10;&#9;&#9;733.932,961.56 733.932,960.525 734.449,960.525 734.449,958.971 734.969,958.971 734.969,957.935 735.485,957.935 &#10;&#9;&#9;735.485,956.381 736.002,956.381 736.002,955.345 736.522,955.345 736.522,953.792 737.039,953.792 737.039,952.756 &#10;&#9;&#9;737.556,952.756 737.556,951.203 738.075,951.203 738.075,950.166 738.592,950.166 738.592,948.613 739.109,948.613 &#10;&#9;&#9;739.109,947.578 739.629,947.578 739.629,946.024 740.146,946.024 740.146,944.988 740.665,944.988 740.665,943.434 &#10;&#9;&#9;741.182,943.434 741.182,942.399 741.699,942.399 741.699,940.846 742.219,940.846 742.219,939.809 742.736,939.809 &#10;&#9;&#9;742.736,938.256 743.253,938.256 743.253,937.221 743.772,937.221 743.772,935.666 744.289,935.666 744.289,934.631 &#10;&#9;&#9;744.806,934.631 744.806,933.077 745.326,933.077 745.326,932.041 745.843,932.041 745.843,930.487 746.359,930.487 &#10;&#9;&#9;746.359,929.452 746.879,929.452 746.879,927.899 747.396,927.899 747.396,926.862 747.916,926.862 747.916,925.309 &#10;&#9;&#9;748.432,925.309 748.432,924.274 748.949,924.274 748.949,922.72 749.469,922.72 749.469,921.684 749.986,921.684 749.986,920.13 &#10;&#9;&#9;750.503,920.13 750.503,919.095 751.022,919.095 751.022,917.54 751.539,917.54 751.539,916.505 752.056,916.505 752.056,914.952 &#10;&#9;&#9;752.576,914.952 752.576,913.915 753.093,913.915 753.093,912.362 753.61,912.362 753.61,911.327 754.129,911.327 754.129,909.773 &#10;&#9;&#9;754.646,909.773 754.646,908.737 755.166,908.737 755.166,907.183 755.683,907.183 755.683,906.148 756.2,906.148 756.2,904.595 &#10;&#9;&#9;756.719,904.595 756.719,903.558 757.236,903.558 757.236,902.005 757.753,902.005 757.753,900.97 758.273,900.97 758.273,899.415 &#10;&#9;&#9;758.79,899.415 758.79,898.38 759.306,898.38 759.306,896.826 759.826,896.826 759.826,895.79 760.343,895.79 760.343,894.236 &#10;&#9;&#9;760.86,894.236 760.86,893.201 761.38,893.201 761.38,891.648 761.896,891.648 761.896,890.611 762.416,890.611 762.416,863.682 &#10;&#9;&#9;684.734,863.682 &#9;" style="fill: rgb(92, 225, 230);"/>
	<path fill="#1A1A3A" d="M852.523,871.451h-0.517v-1.553h-0.52v-1.037h-0.517v-1.035h-0.517v-0.518h-0.52v-0.518h-0.517v-0.517&#10;&#9;&#9;h-0.517v-0.518h-1.036v-0.518h-1.553v-0.517h-2.073V864.2h-60.072v0.518h-2.07v0.517h-1.553v0.518h-1.037v0.518h-0.52v0.517h-0.517&#10;&#9;&#9;v0.518h-0.517v0.518h-0.52v1.035h-0.517v1.037h-0.517v1.553h-0.52v3.625h-0.517v158.986h0.517v3.107h0.52v1.553h0.517v1.036h0.517&#10;&#9;&#9;v1.035h0.52v0.518h0.517v0.518h0.517v0.517h0.52v0.518h1.037v0.518h1.034v0.518h1.553v0.517h3.627v0.518h55.412v-0.518h3.107&#10;&#9;&#9;v-0.517h1.553v-0.518h1.037v-0.518h1.036v-0.518h0.517v-0.517h0.517v-0.518h0.52v-0.518h0.517v-1.035h0.517v-1.036h0.52v-1.553&#10;&#9;&#9;h0.517v-3.107h0.52V874.557h-0.52V871.451z M827.148,1019.043h-25.894V889.576h25.894V1019.043z" style="fill: rgb(92, 225, 230);"/>
	<polygon fill="#1A1A3A" points="917.775,953.275 917.255,953.275 917.255,952.238 916.738,952.238 916.738,950.685 &#10;&#9;&#9;916.221,950.685 916.221,949.65 915.702,949.65 915.702,948.096 915.185,948.096 915.185,947.06 914.668,947.06 914.668,945.506 &#10;&#9;&#9;914.148,945.506 914.148,944.471 913.631,944.471 913.631,942.916 913.112,942.916 913.112,941.881 912.595,941.881 &#10;&#9;&#9;912.595,940.328 912.078,940.328 912.078,939.291 911.558,939.291 911.558,937.738 911.041,937.738 911.041,936.703 &#10;&#9;&#9;910.524,936.703 910.524,935.149 910.005,935.149 910.005,934.113 909.488,934.113 909.488,932.559 908.971,932.559 &#10;&#9;&#9;908.971,931.524 908.451,931.524 908.451,929.971 907.935,929.971 907.935,928.934 907.418,928.934 907.418,927.381 &#10;&#9;&#9;906.898,927.381 906.898,926.345 906.381,926.345 906.381,924.791 905.861,924.791 905.861,923.755 905.345,923.755 &#10;&#9;&#9;905.345,922.202 904.828,922.202 904.828,921.166 904.308,921.166 904.308,919.612 903.791,919.612 903.791,918.577 &#10;&#9;&#9;903.274,918.577 903.274,917.024 902.755,917.024 902.755,915.987 902.238,915.987 902.238,914.434 901.721,914.434 &#10;&#9;&#9;901.721,913.398 901.201,913.398 901.201,911.845 900.684,911.845 900.684,910.808 900.167,910.808 900.167,909.255 &#10;&#9;&#9;899.648,909.255 899.648,908.22 899.131,908.22 899.131,906.665 898.611,906.665 898.611,905.63 898.094,905.63 898.094,904.077 &#10;&#9;&#9;897.577,904.077 897.577,903.04 897.058,903.04 897.058,901.487 896.541,901.487 896.541,900.451 896.024,900.451 896.024,898.898 &#10;&#9;&#9;895.504,898.898 895.504,897.861 894.987,897.861 894.987,896.308 894.471,896.308 894.471,895.273 893.951,895.273 &#10;&#9;&#9;893.951,893.719 893.434,893.719 893.434,892.683 892.917,892.683 892.917,891.13 892.398,891.13 892.398,890.094 891.881,890.094 &#10;&#9;&#9;891.881,863.682 865.987,863.682 865.987,1044.938 891.881,1044.938 891.881,955.345 892.398,955.345 892.398,956.381 &#10;&#9;&#9;892.917,956.381 892.917,957.935 893.434,957.935 893.434,958.971 893.951,958.971 893.951,960.525 894.471,960.525 &#10;&#9;&#9;894.471,961.56 894.987,961.56 894.987,963.113 895.504,963.113 895.504,964.15 896.024,964.15 896.024,965.703 896.541,965.703 &#10;&#9;&#9;896.541,966.739 897.058,966.739 897.058,968.292 897.577,968.292 897.577,969.328 898.094,969.328 898.094,970.882 &#10;&#9;&#9;898.611,970.882 898.611,971.917 899.131,971.917 899.131,973.47 899.648,973.47 899.648,974.507 900.167,974.507 900.167,976.06 &#10;&#9;&#9;900.684,976.06 900.684,977.096 901.201,977.096 901.201,978.65 901.721,978.65 901.721,979.686 902.238,979.686 902.238,981.239 &#10;&#9;&#9;902.755,981.239 902.755,982.276 903.274,982.276 903.274,983.829 903.791,983.829 903.791,984.864 904.308,984.864 &#10;&#9;&#9;904.308,986.417 904.828,986.417 904.828,987.454 905.345,987.454 905.345,989.007 905.861,989.007 905.861,990.043 &#10;&#9;&#9;906.381,990.043 906.381,991.596 906.898,991.596 906.898,992.633 907.418,992.633 907.418,994.186 907.935,994.186 &#10;&#9;&#9;907.935,995.221 908.451,995.221 908.451,996.776 908.971,996.776 908.971,997.811 909.488,997.811 909.488,999.365 &#10;&#9;&#9;910.005,999.365 910.005,1000.401 910.524,1000.401 910.524,1001.954 911.041,1001.954 911.041,1002.99 911.558,1002.99 &#10;&#9;&#9;911.558,1004.543 912.078,1004.543 912.078,1005.58 912.595,1005.58 912.595,1007.133 913.112,1007.133 913.112,1008.168 &#10;&#9;&#9;913.631,1008.168 913.631,1009.722 914.148,1009.722 914.148,1010.758 914.668,1010.758 914.668,1012.312 915.185,1012.312 &#10;&#9;&#9;915.185,1013.347 915.702,1013.347 915.702,1014.901 916.221,1014.901 916.221,1015.937 916.738,1015.937 916.738,1017.49 &#10;&#9;&#9;917.255,1017.49 917.255,1018.527 917.775,1018.527 917.775,1044.938 943.669,1044.938 943.669,863.682 917.775,863.682 &#9;" style="fill: rgb(92, 225, 230);"/>
	<polygon fill="#1A1A3A" points="1023.418,1044.419 1026.525,1044.419 1026.525,1043.902 1028.079,1043.902 1028.079,1043.384 &#10;&#9;&#9;1029.115,1043.384 1029.115,1042.866 1030.152,1042.866 1030.152,1042.348 1030.669,1042.348 1030.669,1041.831 1031.185,1041.831 &#10;&#9;&#9;1031.185,1041.312 1031.705,1041.312 1031.705,1040.794 1032.222,1040.794 1032.222,1039.759 1032.739,1039.759 1032.739,1038.722 &#10;&#9;&#9;1033.259,1038.722 1033.259,1037.169 1033.775,1037.169 1033.775,1034.062 1034.295,1034.062 1034.295,1019.043 982.507,1019.043 &#10;&#9;&#9;982.507,967.257 1008.401,967.257 1008.401,941.363 982.507,941.363 982.507,889.576 1034.295,889.576 1034.295,874.557 &#10;&#9;&#9;1033.775,874.557 1033.775,871.451 1033.259,871.451 1033.259,869.897 1032.739,869.897 1032.739,868.861 1032.222,868.861 &#10;&#9;&#9;1032.222,867.825 1031.705,867.825 1031.705,867.307 1031.185,867.307 1031.185,866.789 1030.669,866.789 1030.669,866.272 &#10;&#9;&#9;1030.152,866.272 1030.152,865.754 1029.115,865.754 1029.115,865.235 1027.562,865.235 1027.562,864.719 1025.489,864.719 &#10;&#9;&#9;1025.489,864.2 993.901,864.2 993.901,863.682 956.613,863.682 956.613,1044.938 1023.418,1044.938 &#9;" style="fill: rgb(92, 225, 230);"/>
	<path fill="#1A1A3A" d="M768.685,503.682l-0.014-0.011c-11.012-10.987-28.501-11.695-40.295-2.148&#10;&#9;&#9;c-5.448-4.259-12.132-6.573-19.141-6.366c-8.066,0.155-15.587,3.441-21.179,9.254c-11.297,11.739-11.297,30.134,0.077,41.951&#10;&#9;&#9;l33.739,33.739c1.708,1.744,3.997,2.717,6.438,2.742c0.03,0,0.058,0,0.088,0c2.405,0,4.674-0.926,6.393-2.612l33.868-33.871&#10;&#9;&#9;C780.405,534.601,780.416,515.457,768.685,503.682z M760.653,538.358l-32.257,32.257l-32.18-32.18&#10;&#9;&#9;c-7.062-7.339-7.062-18.835,0-26.173c3.494-3.635,8.196-5.689,13.237-5.785c0.124-0.003,0.249-0.003,0.373-0.003&#10;&#9;&#9;c4.901,0,9.531,1.863,12.997,5.194l5.503,5.514l5.664-5.495c7.35-7.339,19.321-7.347,26.682-0.003&#10;&#9;&#9;C768.002,519.045,767.991,531.011,760.653,538.358z" style="fill: rgb(92, 225, 230);"/>
	<path fill="#1A1A3A" d="M870.29,582.843c2.405,0,4.674-0.926,6.393-2.612l33.868-33.871c11.745-11.758,11.756-30.903,0.025-42.678&#10;&#9;&#9;l-0.014-0.011c-11.018-10.99-28.498-11.692-40.295-2.148c-5.448-4.259-12.134-6.573-19.141-6.366&#10;&#9;&#9;c-8.066,0.155-15.587,3.441-21.179,9.254c-11.297,11.739-11.297,30.134,0.077,41.951l33.739,33.739&#10;&#9;&#9;c1.708,1.744,3.997,2.717,6.438,2.742C870.232,582.843,870.26,582.843,870.29,582.843z M838.108,538.435&#10;&#9;&#9;c-7.062-7.339-7.062-18.835,0-26.173c3.494-3.635,8.196-5.689,13.237-5.785c0.124-0.003,0.249-0.003,0.373-0.003&#10;&#9;&#9;c4.901,0,9.531,1.863,13,5.197l5.512,5.512l5.653-5.495c7.347-7.339,19.318-7.347,26.682-0.003&#10;&#9;&#9;c7.33,7.361,7.319,19.327-0.019,26.674l-32.254,32.26L838.108,538.435z" style="fill: rgb(92, 225, 230);"/>
	<path fill="#1A1A3A" d="M1002.301,580.107c1.775,1.808,4.124,2.72,6.49,2.72c2.336,0,4.685-0.89,6.512-2.684l33.783-33.783&#10;&#9;&#9;c11.747-11.758,11.756-30.905,0.019-42.678l-0.008-0.011c-11.015-10.99-28.495-11.689-40.301-2.145&#10;&#9;&#9;c-12.029-9.392-29.507-8.35-40.317,2.886c-11.297,11.739-11.297,30.134,0.077,41.951L1002.301,580.107z M976.639,512.262&#10;&#9;&#9;c3.709-3.856,8.676-5.791,13.635-5.791c4.688,0,9.367,1.73,12.975,5.199l5.512,5.512l5.65-5.495&#10;&#9;&#9;c7.364-7.339,19.329-7.341,26.682-0.008c7.333,7.364,7.328,19.329-0.014,26.679l-32.257,32.257l-32.182-32.18&#10;&#9;&#9;C969.577,531.096,969.577,519.601,976.639,512.262z" style="fill: rgb(92, 225, 230);"/>
	<path fill="#1A1A3A" d="M566.744,743.652l-156.626,4.762c-5.8,0.18-10.343,4.864-10.343,10.669v183.92&#10;&#9;&#9;c0,2.913,1.214,5.734,3.329,7.743c1.991,1.889,4.601,2.928,7.342,2.928l157.189-8.246c5.669-0.3,10.108-4.981,10.108-10.658&#10;&#9;&#9;V754.321c0-2.871-1.182-5.664-3.246-7.66C572.377,744.605,569.516,743.527,566.744,743.652z M561.737,929.708l-145.955,7.67V764.26&#10;&#9;&#9;l145.955-4.439V929.708z" style="fill: rgb(92, 225, 230);"/>
	<path fill="#1A1A3A" d="M456.253,888.027l16.799-0.821c1.671-0.081,2.981-1.329,2.985-2.843l0.188-74.988&#10;&#9;&#9;c0.004-1.639-1.516-2.944-3.326-2.856l-16.799,0.82c-1.671,0.082-2.981,1.329-2.986,2.843l-0.188,74.988&#10;&#9;&#9;C452.923,886.81,454.444,888.116,456.253,888.027z" style="fill: rgb(92, 225, 230);"/>
	<path fill="#1A1A3A" d="M510.498,885.145l16.8-0.821c1.671-0.082,2.981-1.329,2.985-2.843l0.189-74.987&#10;&#9;&#9;c0.004-1.639-1.516-2.945-3.325-2.856l-16.8,0.82c-1.672,0.081-2.981,1.329-2.985,2.843l-0.188,74.988&#10;&#9;&#9;C507.169,883.928,508.689,885.234,510.498,885.145z" style="fill: rgb(92, 225, 230);"/>
	<path fill="#1A1A3A" d="M357.271,198.133c5.039,0.68,9.52,0.852,13.448,0.516c3.919-0.339,6.529-0.865,7.837-1.589l0.792-30.003&#10;&#9;&#9;c0.016-0.964-1.203-1.8-3.647-2.517l-3.788-0.8c-1.23-0.164-2.777-0.232-4.658-0.195c-1.876,0.036-2.819,0.5-2.829,1.397&#10;&#9;&#9;l-0.375,13.034c-0.021,1.667-1.693,2.274-5.028,1.826c-3.329-0.451-6.248-2.24-8.764-5.372c-2.517-3.132-3.736-7.383-3.663-12.761&#10;&#9;&#9;c0.073-5.377,1.371-9.179,3.897-11.403c2.522-2.225,5.784-3.069,9.796-2.527c1.678,0.227,3.418,0.737,5.226,1.527&#10;&#9;&#9;c1.798,0.789,3.002,1.462,3.611,2.027c0.609,0.563,1.183,0.881,1.735,0.956c0.547,0.073,1.448-0.445,2.694-1.561&#10;&#9;&#9;c1.246-1.118,2.371-2.905,3.371-5.364c1.005-2.465,1.516-4.4,1.537-5.807c0.016-1.41,0.006-2.374-0.057-2.895&#10;&#9;&#9;c-1.339-1.652-3.83-3.16-7.462-4.518c-3.643-1.36-7.728-2.345-12.25-2.954c-9.958-1.344-17.784,0.711-23.49,6.156&#10;&#9;&#9;c-5.711,5.453-8.634,13.141-8.769,23.062c-0.157,11.654,2.6,20.879,8.264,27.671C340.368,192.833,347.897,196.866,357.271,198.133z&#10;&#9;&#9;" style="fill: rgb(92, 225, 230);"/>
	<path fill="#1A1A3A" d="M389.15,200.978c1.391,0.521,3.548,0.977,6.461,1.37c5.466,0.737,8.389,0.198,8.78-1.615l2.793-10.825&#10;&#9;&#9;l14.48,1.957l2.845,12.036c0.401,1.741,3.246,2.968,8.53,3.681c1.636,0.221,3.851,0.401,6.643,0.539&#10;&#9;&#9;c2.799,0.135,4.2-0.005,4.205-0.427l-14.923-63.278c0.005-0.482-4.143-1.282-12.459-2.407c-8.316-1.123-12.479-1.443-12.484-0.961&#10;&#9;&#9;l-16.95,58.88C387.071,200.11,387.764,200.459,389.15,200.978z M414.786,160.754l0.547,0.073l3.846,19.225l-9.567-1.292&#10;&#9;&#9;L414.786,160.754z" style="fill: rgb(92, 225, 230);"/>
	<path fill="#1A1A3A" d="M456.44,210.383c1.396,0.37,2.835,0.657,4.325,0.854c1.485,0.203,3.356,0.287,5.607,0.261&#10;&#9;&#9;c2.246-0.026,3.413-0.487,3.486-1.381l1.767-35.813l10.963,38.616c0.11,0.677,2.111,1.282,5.993,1.805&#10;&#9;&#9;c3.887,0.524,5.956,0.44,6.206-0.248l11.615-35.115l1.417,36.422c-0.016,1.204,2.678,2.17,8.082,2.9&#10;&#9;&#9;c1.818,0.248,3.918,0.378,6.289,0.399c2.371,0.018,3.559-0.302,3.569-0.964l-1.834-59.524c0.01-0.841-1.542-1.639-4.664-2.392&#10;&#9;&#9;s-5.81-1.282-8.056-1.587c-7.831-1.058-12.031-0.839-12.599,0.651l-9.307,27.293l-9.817-29.789c-0.349-1.011-2.1-1.894-5.252-2.652&#10;&#9;&#9;c-3.152-0.755-5.82-1.282-8.003-1.579c-7.414-1.001-11.124-0.779-11.14,0.664l-2.892,58.341&#10;&#9;&#9;C452.121,208.624,453.533,209.57,456.44,210.383z" style="fill: rgb(92, 225, 230);"/>
	<path fill="#1A1A3A" d="M540.488,221.917l31.139,4.207c0.85,0.115,1.475-0.826,1.861-2.821c0.396-1.996,0.599-3.637,0.615-4.932&#10;&#9;&#9;c0.016-1.292-0.052-2.522-0.219-3.689c-0.329-2.694-1.011-4.111-2.043-4.252l-16.752-2.262l0.125-9.02l11.563,1.563&#10;&#9;&#9;c0.729,0.096,1.24-0.693,1.532-2.371c0.297-1.678,0.458-3.147,0.474-4.408c0.057-4.205-0.495-6.388-1.646-6.545l-11.745-1.587&#10;&#9;&#9;l0.125-9.111l16.841,2.275c1.277,0.172,1.954-2.4,2.027-7.725c0.073-5.32-0.532-8.069-1.808-8.241l-32.598-4.403&#10;&#9;&#9;c-1.396-0.187-2.1,0.498-2.121,2.061l-0.792,57.994C537.038,220.517,538.179,221.604,540.488,221.917z" style="fill: rgb(92, 225, 230);"/>
	<path fill="#1A1A3A" d="M258.673,531.031c0.425,2.16,0.848,4.362,1.275,6.572c28.546,2.326,67.627-6.671,95.772-39.159&#10;&#9;&#9;c23.644-27.292,25.858-62.515,25.625-77.367c-22.605-3.85-45.024-8.457-67.362-13.016c-16.167-3.123-32.47-6.492-48.569-7.041&#10;&#9;&#9;c-3.98,0.053-7.897,0.143-11.338,1.619c-3.48,1.319-6.478,3.793-8.371,7.122c-3.849,6.712-4.029,15.362-2.586,23.243&#10;&#9;&#9;C247.385,465.9,252.513,498.514,258.673,531.031z" style="fill: rgb(92, 225, 230);"/>
	<path fill="#1A1A3A" d="M461.222,590.375c7.241-0.686,14.563-3.035,17.721-6.556c3.29-3.462,4.829-10.339,5.158-17.959&#10;&#9;&#9;c0.227-3.808,0.202-7.726,0.067-11.34c-0.395-3.577-0.876-7.655-1.472-11.65c-1.153-8.006-2.539-16.063-4.012-24.12&#10;&#9;&#9;c-2.956-16.179-6.451-32.092-9.711-48.639c-1.538-8.274-2.796-16.211-4.896-23.001c-2.025-6.893-4.995-11.876-8.826-14.38&#10;&#9;&#9;c-1.941-1.335-4.326-2.312-7.243-2.862c-2.06-0.444-6.192-0.727-9.819-1.098c3.743,27.277,4.402,89.332-45.879,162.172&#10;&#9;&#9;c6.76,0.121,13.533,0.252,20.284,0.357C428.976,591.418,445.788,591.861,461.222,590.375z" style="fill: rgb(92, 225, 230);"/>
	<path fill="#1A1A3A" d="M443.992,676.043c3.338,1.043,6.661,1.392,9.993,1.598c3.331,0.179,6.662,0.13,10.037-0.175&#10;&#9;&#9;c3.376-0.499,6.75-0.835,10.31-3.388c0.868-0.727,1.93-1.813,2.251-3.629c0.367-1.982-1.028-3.643-1.911-4.227&#10;&#9;&#9;c-1.942-1.299-3.675-1.482-5.373-1.778c-3.393-0.445-6.637-0.399-9.868-0.697c-3.249-0.07-6.449-0.108-9.724,0.025&#10;&#9;&#9;c-3.228,0.217-6.728,0.458-9.729,3.096c-0.701,0.703-1.264,1.641-1.537,2.661c-0.348,0.969-0.16,2.639,0.63,3.549&#10;&#9;&#9;C440.581,674.865,442.351,675.474,443.992,676.043z M443.563,669.621c1.426-1.306,4.277-2.001,6.899-2.48&#10;&#9;&#9;c2.702-0.455,5.538-0.574,8.298-0.388c2.745,0.284,5.681,0.138,8.089,1.069c1.114,0.42,2.267,0.907,2.788,1.391&#10;&#9;&#9;c0.038,0.113-0.181,0.181-0.441,0.279c-1.599,0.679-4.347,1.259-6.877,1.639c-2.6,0.423-5.305,0.658-8.003,0.732&#10;&#9;&#9;c-2.686,0.047-4.312,0.025-6.391-0.227c-1.242-0.15-2.855-0.245-3.414-0.672C444.057,670.743,442.897,670.269,443.563,669.621z" style="fill: rgb(92, 225, 230);"/>
	<path fill="#1A1A3A" d="M504.776,674.271c3.338,1.043,6.661,1.392,9.993,1.598c3.33,0.179,6.661,0.129,10.037-0.174&#10;&#9;&#9;c3.376-0.499,6.75-0.835,10.309-3.389c0.869-0.727,1.93-1.813,2.252-3.629c0.366-1.983-1.029-3.644-1.912-4.227&#10;&#9;&#9;c-1.942-1.3-3.676-1.482-5.373-1.779c-3.393-0.445-6.637-0.398-9.868-0.697c-3.249-0.069-6.449-0.108-9.724,0.026&#10;&#9;&#9;c-3.228,0.216-6.729,0.458-9.729,3.096c-0.7,0.703-1.264,1.641-1.536,2.66c-0.348,0.969-0.16,2.639,0.63,3.549&#10;&#9;&#9;C501.364,673.093,503.135,673.702,504.776,674.271z M504.686,666.578c1.434-1.286,4.4-1.497,7.097-1.713&#10;&#9;&#9;c2.926-0.234,6.891-0.242,9.667-0.058c2.759,0.279,5.423-0.051,7.844,0.866c1.12,0.414,3.227,1.032,1.518,1.7&#10;&#9;&#9;c-0.079,0.023-0.242,0.096-0.553,0.198c-1.214,0.445-4.381,0.977-6.925,1.351c-2.614,0.417-5.334,0.648-8.048,0.721&#10;&#9;&#9;c-2.701,0.046-5.46-0.015-7.98-0.435c-1.238-0.195-2.461-0.569-3.023-0.988C503.827,668.002,504.016,667.216,504.686,666.578z" style="fill: rgb(92, 225, 230);"/>
	<path fill="#1A1A3A" d="M369.335,590.518c1.289,0.656,2.315,1.614,2.862,2.891c1.611,3.759-1.327,8.625-6.562,10.868&#10;&#9;&#9;c-5.234,2.243-10.783,1.014-12.395-2.746c-0.375-0.875-0.481-1.812-0.391-2.759c-1.096,2.135-1.773,4.518-1.773,7.082&#10;&#9;&#9;c0,0.982,0.115,1.936,0.288,2.868c1.182-1.148,3.127-1.579,5.019-0.942c2.551,0.859,4.025,3.319,3.292,5.493&#10;&#9;&#9;c-0.633,1.88-2.714,2.847-4.912,2.543c2.862,3.42,7.108,5.641,11.916,5.641c8.618,0,15.603-6.986,15.603-15.603&#10;&#9;&#9;C382.282,598.146,376.681,591.784,369.335,590.518z" style="fill: rgb(92, 225, 230);"/>
</g>
</svg>